HIERARCHY
ROOT Hips
{
	OFFSET 0.000000 0.000000 0.000000
	CHANNELS 6 Xposition Yposition Zposition Zrotation Yrotation Xrotation 
	JOINT LHipJoint
	{
		OFFSET 0.000000 0.000000 0.000000
		CHANNELS 3 Zrotation Yrotation Xrotation
		JOINT LeftUpLeg
		{
			OFFSET 1.363060 -1.794630 0.839290
			CHANNELS 3 Zrotation Yrotation Xrotation
			JOINT LeftLeg
			{
				OFFSET 2.448110 -6.726130 0.000000
				CHANNELS 3 Zrotation Yrotation Xrotation
				JOINT LeftFoot
				{
					OFFSET 2.562200 -7.039590 0.000000
					CHANNELS 3 Zrotation Yrotation Xrotation
					JOINT LeftToeBase
					{
						OFFSET 0.157640 -0.433110 2.322550
						CHANNELS 3 Zrotation Yrotation Xrotation
						End Site
						{
							OFFSET 0.000000 0.000000 0.000000
						}
					}
				}
			}
		}
	}
	JOINT RHipJoint
	{
		OFFSET 0.000000 0.000000 0.000000
		CHANNELS 3 Zrotation Yrotation Xrotation
		JOINT RightUpLeg
		{
			OFFSET -1.305520 -1.794630 0.839290
			CHANNELS 3 Zrotation Yrotation Xrotation
			JOINT RightLeg
			{
				OFFSET -2.542530 -6.985550 0.000000
				CHANNELS 3 Zrotation Yrotation Xrotation
				JOINT RightFoot
				{
					OFFSET -2.568260 -7.056230 0.000000
					CHANNELS 3 Zrotation Yrotation Xrotation
					JOINT RightToeBase
					{
						OFFSET -0.164730 -0.452590 2.363150
						CHANNELS 3 Zrotation Yrotation Xrotation
						End Site
						{
							OFFSET 0.000000 0.000000 0.000000
						}
					}
				}
			}
		}
	}
}
MOTION
Frames: 11
Frame Time: 0.008333
1.747108 17.226633 3.261734 6.024300 26.185346 26.989663 -8.572953 1.189003 5.155115 -8.240056 -3.731426 -38.995547 -3.972837 -1.223414 5.084471 -1.093782 -8.115972 2.712988 -0.989900 0.000000 -45.966700 10.420862 -2.636355 3.827799 7.917850 9.105771 -11.907316 1.602324 -0.842581 23.777461 1.162858 10.904813 -2.481837 -179.257600 -0.000000 -5.082299
1.847104 17.160685 3.382755 5.938134 25.413174 26.514032 -8.626349 1.265326 5.168916 -8.188913 -3.722919 -39.058071 -3.909915 -1.064124 6.403598 -1.085414 -8.178503 2.611752 -0.996600 0.000000 -45.450600 10.524482 -2.733933 3.627065 7.722573 7.991578 -11.645116 1.517902 -0.977513 25.162609 1.178255 11.261076 -2.047245 0.830600 -0.000000 -3.591700
1.943387 17.093969 3.506889 5.923966 24.672772 26.084173 -8.661229 1.368841 5.170779 -8.272390 -3.679457 -39.240687 -3.849511 -0.870419 8.174899 -1.062309 -8.161507 2.259434 -0.964100 0.000000 -44.670000 10.664486 -2.834315 3.439711 7.406763 6.793036 -11.516270 1.393030 -1.120495 26.610951 1.187596 11.598576 -1.216581 0.992400 0.000001 -15.003600
2.035083 17.027977 3.633476 5.972734 23.967509 25.694069 -8.677722 1.492755 5.158074 -8.485422 -3.593439 -39.527546 -3.791589 -0.649082 10.341135 -1.026828 -8.086851 1.649321 -0.895899 -0.000000 -43.649800 10.833918 -2.926974 3.264726 6.990388 5.522508 -11.535489 1.242617 -1.262921 28.146193 1.188533 11.945484 -0.193863 1.203800 -0.000000 -26.814900
2.121436 16.964327 3.761689 6.069008 23.295738 25.338740 -8.677396 1.628661 5.133019 -8.795441 -3.482118 -39.880054 -3.732111 -0.411006 12.794528 -0.977777 -7.943397 0.800747 -0.794900 0.000000 -42.440401 11.023671 -3.002367 3.102657 6.498575 4.227684 -11.708762 1.080800 -1.400341 29.817711 1.180365 12.313504 0.802471 1.429900 0.000000 -36.773700
2.201927 16.904705 3.890633 6.197058 22.646878 25.018112 -8.661909 1.768545 5.101623 -9.157512 -3.380285 -40.243775 -3.666626 -0.170576 15.387893 -0.911617 -7.698126 -0.246345 -0.665800 0.000001 -41.128300 11.226166 -3.057130 2.957324 5.956480 2.980104 -12.029248 0.906074 -1.533852 31.631393 1.160486 12.666595 1.789377 1.670800 0.000000 -44.806200
2.276195 16.850774 4.019389 6.344758 22.007774 24.732232 -8.632495 1.905641 5.071106 -9.532590 -3.325203 -40.557764 -3.593671 0.056521 17.961308 -0.824785 -7.318047 -1.440663 -0.518200 -0.000000 -39.831800 11.435184 -3.088568 2.830170 5.386291 1.836696 -12.488389 0.717011 -1.664403 33.582666 1.126602 12.968901 2.793395 1.926900 -0.000000 -50.907400
2.344241 16.804170 4.147035 6.499127 21.364214 24.479051 -8.591968 2.034366 5.046257 -9.890502 -3.336312 -40.769269 -3.515137 0.256761 20.370858 -0.715473 -6.788336 -2.729175 -0.366400 0.000001 -38.679600 11.643696 -3.095707 2.722271 4.812875 0.842599 -13.074099 0.512779 -1.792122 35.650188 1.076175 13.180360 3.853012 2.199601 -0.000000 -55.330700
2.406177 16.766193 4.272892 6.654898 20.702383 24.254991 -8.541232 2.151584 5.029709 -10.218884 -3.423811 -40.831109 -3.435523 0.419319 22.495093 -0.582850 -6.103801 -4.059411 -0.226300 0.000000 -37.776400 11.848650 -3.078133 2.631429 4.250392 0.011113 -13.776424 0.291733 -1.916952 37.802336 1.005024 13.254144 5.031204 2.492200 0.000001 -58.771400
2.462863 16.737818 4.396174 6.791301 20.008852 24.048352 -8.488137 2.253252 5.018992 -10.499788 -3.563330 -40.720913 -3.358366 0.539220 24.258959 -0.429029 -5.285863 -5.384652 -0.112801 0.000000 -37.187201 12.039118 -3.037658 2.558115 3.730465 -0.635132 -14.576664 0.060374 -2.037283 40.013164 0.912361 13.153356 6.287551 2.781200 0.000000 -61.116000
2.515214 16.719556 4.516332 6.893066 19.271475 23.846567 -8.439319 2.337092 5.010235 -10.723540 -3.725945 -40.423241 -3.286311 0.614412 25.615746 -0.256840 -4.357023 -6.660579 -0.036000 0.000000 -36.921099 12.207712 -2.977319 2.500481 3.274843 -1.098216 -15.456558 -0.176258 -2.152091 42.250754 0.796665 12.836598 7.604088 3.041200 -0.000000 -62.635000
